<?xml version="1.0" standalone="no"?>
<!DOCTYPE svg PUBLIC "-//W3C//DTD SVG 20010904//EN"
 "http://www.w3.org/TR/2001/REC-SVG-20010904/DTD/svg10.dtd">
<svg version="1.0" xmlns="http://www.w3.org/2000/svg"
 width="224.000000pt" height="284.000000pt" viewBox="0 0 224.000000 284.000000"
 preserveAspectRatio="xMidYMid meet">

<g transform="translate(0.000000,284.000000) scale(0.100000,-0.100000)"
fill="#000000" stroke="none">
<path d="M983 2681 c-103 -38 -158 -76 -288 -202 l-130 -127 -90 -4 c-62 -3
-102 -10 -130 -23 -42 -21 -42 -19 -29 -105 5 -35 0 -65 -19 -127 -63 -198
-70 -343 -32 -629 31 -227 36 -247 76 -307 23 -35 32 -63 36 -107 7 -77 -10
-80 -52 -8 -35 60 -87 105 -133 114 -54 11 -40 -21 22 -49 81 -37 134 -115
176 -258 18 -61 30 -119 27 -130 -4 -14 -1 -19 7 -16 19 7 25 0 91 -91 177
-248 473 -437 744 -473 111 -15 203 0 311 52 72 34 99 55 180 137 157 159 228
284 257 452 13 72 14 112 4 266 -13 203 -11 217 46 276 24 24 34 42 29 53 -10
27 -29 12 -61 -50 l-30 -59 -3 38 c-2 21 2 51 8 66 19 45 -11 469 -40 571 -6
19 -10 75 -10 126 0 62 -6 111 -20 154 -12 40 -16 67 -10 74 24 29 -117 162
-222 209 -80 37 -187 56 -340 63 -76 3 -138 8 -138 10 0 2 5 25 12 50 10 41 9
47 -7 59 -29 21 -178 18 -242 -5z m402 -755 c50 -14 128 -45 175 -68 47 -24
88 -44 93 -46 4 -2 7 10 7 27 0 16 5 33 11 36 5 4 14 18 19 31 l9 24 36 -21
c19 -12 38 -25 41 -30 12 -20 35 -8 41 21 7 36 11 37 40 6 54 -56 88 -194 98
-386 3 -69 17 -233 31 -365 31 -303 24 -378 -49 -521 -44 -85 -125 -192 -220
-288 -73 -74 -108 -101 -167 -130 -168 -81 -352 -64 -566 54 -200 111 -346
256 -463 458 -65 113 -80 166 -96 357 -12 147 -12 179 0 240 8 39 22 133 30
210 17 163 36 233 76 291 76 112 159 130 559 128 189 -2 212 -4 295 -28z"/>
<path d="M821 1560 c-76 -16 -150 -70 -196 -142 -23 -37 -9 -35 62 6 32 19 85
42 118 52 76 22 204 22 264 0 57 -21 65 -12 22 25 -61 50 -182 77 -270 59z"/>
<path d="M1547 1496 c-81 -29 -98 -78 -21 -57 53 15 141 13 254 -4 113 -17
110 -17 110 -6 0 10 -99 55 -155 70 -54 15 -142 13 -188 -3z"/>
<path d="M1767 1289 c-58 -14 -134 -56 -184 -101 -45 -43 -86 -100 -49 -68 16
13 20 12 30 -2 11 -14 25 -16 87 -11 41 3 81 11 89 18 8 7 26 15 40 17 23 3
25 7 25 63 l0 60 53 3 c36 2 52 7 49 15 -5 15 -89 19 -140 6z"/>
<path d="M750 1172 c-36 -9 -63 -21 -60 -27 5 -10 22 -9 69 1 22 5 23 3 17
-26 -3 -18 -1 -40 4 -50 24 -44 174 -68 212 -33 16 14 21 15 27 4 13 -20 29
-5 37 34 3 19 9 35 13 35 4 0 22 -16 41 -35 39 -40 48 -39 26 2 -48 95 -222
137 -386 95z m133 -18 c12 -12 -6 -34 -28 -34 -26 0 -40 14 -30 30 7 11 48 14
58 4z"/>
<path d="M1522 755 c-19 -41 -69 -65 -135 -65 -48 0 -62 4 -83 25 -31 31 -34
31 -34 3 0 -31 11 -45 43 -57 88 -34 203 14 221 92 8 34 3 35 -12 2z"/>
<path d="M1565 583 c-11 -2 -57 -13 -103 -24 -60 -15 -112 -20 -190 -19 -59 1
-132 1 -162 0 -49 -1 -52 -3 -30 -12 14 -6 88 -11 165 -11 149 0 249 16 327
51 41 19 38 25 -7 15z"/>
</g>
</svg>
